<?xml version="1.0" encoding="utf-8"?>
<!-- Svg Vector Icons : http://www.onlinewebfonts.com/icon -->
<!DOCTYPE svg PUBLIC "-//W3C//DTD SVG 1.1//EN" "http://www.w3.org/Graphics/SVG/1.1/DTD/svg11.dtd">
<svg version="1.1" xmlns="http://www.w3.org/2000/svg" xmlns:xlink="http://www.w3.org/1999/xlink" x="0px" y="0px" viewBox="0 0 1000 1000" enable-background="new 0 0 1000 1000" xml:space="preserve">
<metadata> Svg Vector Icons : http://www.onlinewebfonts.com/icon </metadata>
<g><g transform="translate(0.000000,511.000000) scale(0.100000,-0.100000)"><path d="M3518.8,4998.2c0-62.8,71.2-236.5,123.5-297.2l58.6-73.3l-117.2-85.8C3072.9,4165,2859.4,3459.6,3008,2630.6c16.7-94.2,35.6-186.3,41.9-203.1c10.5-25.1-4.2-31.4-60.7-31.4c-92.1,0-171.7-62.8-205.2-161.2c-71.2-217.7,96.3-950.4,276.3-1197.4c50.2-71.2,73.3-85.8,131.9-85.8c71.2,0,73.3-2.1,96.3-119.3c39.8-188.4,157-498.2,255.4-674c58.6-104.7,154.9-224,278.4-349.6c159.1-161.2,217.7-205.1,387.3-286.8c291-142.4,479.4-188.4,795.5-190.5c196.8,0,295.2,8.4,397.7,37.7c452.2,131.9,793.4,391.5,1027.8,789.2c96.3,163.3,240.7,556.8,261.7,715.9c12.6,81.7,20.9,98.4,48.2,85.8c142.3-60.7,257.5,102.6,393.6,563.1c67,226.1,75.4,282.6,77.4,502.4l2.1,249.1l-69.1,60.7c-44,39.8-90,60.7-131.9,60.7c-62.8,0-64.9,2.1-52.3,69.1c94.2,443.8,121.4,910.6,69.1,1159.7c-83.7,385.2-311.9,632.2-621.7,669.9c-96.3,10.5-100.5,14.6-144.4,123.5c-96.3,230.3-385.2,466.8-678.2,554.7c-152.8,48.1-242.8,48.1-747.3-2.1c-251.2-25.1-860.4-6.3-1207.9,35.6C3562.8,5012.9,3518.8,5010.8,3518.8,4998.2z"/><path d="M3372.3-808.7c-372.6-242.8-1002.7-527.5-1482.1-667.8c-152.8-46.1-326.6-108.9-383.1-138.2c-232.4-127.7-420.8-412.4-491.9-751.5c-60.7-286.8-37.7-1195.3,35.6-1427.7c18.8-60.7,54.4-83.7,339.1-224c808-395.7,1741.7-644.8,2798.8-747.3c389.4-37.7,1325.1-31.4,1716.5,10.5c1048.8,113,1984.5,372.6,2769.5,770.3c163.3,83.7,253.3,142.4,265.9,171.7c33.5,90,60.7,345.4,75.4,692.9c25.1,701.2-75.4,1101.1-349.6,1369C8542.8-1627.2,8440.2-1577,8143-1489c-506.6,148.6-1004.8,368.4-1450.7,636.4c-138.1,83.7-257.5,144.5-263.8,136.1c-8.4-10.5-159.1-473.1-334.9-1032c-477.3-1511.4-515-1630.7-527.5-1643.3c-6.3-8.4-31.4,41.9-54.4,108.8c-23,67-98.4,282.6-167.5,479.4l-125.6,355.9l81.7,125.6c125.6,186.3,209.3,374.7,234.4,521.2c18.8,110.9,16.8,144.4-14.6,228.2c-69.1,180-282.6,276.3-579.9,259.6c-280.5-16.7-452.2-134-489.8-332.8c-27.2-144.4,77.5-433.3,253.3-697.1l71.2-106.7l-159.1-450.1c-87.9-247-165.4-462.6-173.7-477.3c-14.7-27.2-129.8,311.9-594.5,1783.5c-152.8,483.6-286.8,881.3-297.3,883.4C3537.7-708.2,3458.1-752.2,3372.3-808.7z"/></g></g>
</svg>